<?xml version="1.0"?>
<svg xmlns="http://www.w3.org/2000/svg" xmlns:xlink="http://www.w3.org/1999/xlink" xmlns:svgjs="http://svgjs.com/svgjs" version="1.1" width="512" height="512" x="0" y="0" viewBox="0 0 510 510" style="enable-background:new 0 0 512 512" xml:space="preserve" class=""><g><g xmlns="http://www.w3.org/2000/svg" id="XMLID_2586_"><g id="XMLID_3541_"><g><g id="XMLID_553_"><path id="XMLID_554_" d="m230.667 413.955-20.667 6.334v33.686l-94.121 26.89 8.242 28.846 102.98-29.422h27.899l15-30-15-30z" fill="#354367" data-original="#354367" style="" class=""/></g></g></g><g id="XMLID_3539_"><g><g id="XMLID_555_"><path id="XMLID_556_" d="m300 453.975v-33.686l-25.5-8.5-19.5 8.5v60h27.898l102.981 29.422 8.242-28.846z" fill="#282a4b" data-original="#282a4b" style="" class=""/></g></g></g><g id="XMLID_676_"><g><g id="XMLID_560_"><path id="XMLID_563_" d="m0 45.289v375h255l15-135-15-75-86.122-165z" fill="#455e80" data-original="#455e80" style="" class=""/></g></g></g><g id="XMLID_3535_"><g><g id="XMLID_564_"><path id="XMLID_565_" d="m510 45.289h-168.882l-86.118 164.999v210.001h255z" fill="#354367" data-original="#354367" style="" class=""/></g></g></g><g id="XMLID_3506_"><g id="XMLID_3523_"><path id="XMLID_3049_" d="m30 75.289v270l105 15 120-15 12-75-12-60-100.628-135z" fill="#fff5f5" data-original="#fff5f5" style="" class=""/></g></g><g id="XMLID_3500_"><g id="XMLID_3501_"><path id="XMLID_3043_" d="m255 210.289v135l90 15 135-15v-270h-124.374z" fill="#e6ecf2" data-original="#e6ecf2" style="" class=""/></g></g><g id="XMLID_3413_"><g><g id="XMLID_1280_"><path id="XMLID_1312_" d="m30 345.289v45h225l15-30-15-15z" fill="#4fe5a5" data-original="#4fe5a5" style="" class=""/></g></g></g><g id="XMLID_3327_"><g id="XMLID_3391_"><path id="XMLID_4659_" d="m255 345.289h225v45h-225z" fill="#3aaee6" data-original="#e63a57" style="" class=""/></g></g><g id="XMLID_3782_"><path id="XMLID_3938_" d="m60 210.289h90v30h-90z" fill="#e6ecf2" data-original="#e6ecf2" style="" class=""/></g><g id="XMLID_3781_"><path id="XMLID_3937_" d="m60 270.289h135v30h-135z" fill="#e6ecf2" data-original="#e6ecf2" style="" class=""/></g><g id="XMLID_3780_"><path id="XMLID_3936_" d="m360 210.289h90v30h-90z" fill="#cfd7e6" data-original="#cfd7e6" style="" class=""/></g><g id="XMLID_3779_"><path id="XMLID_3778_" d="m315 270.289h135v30h-135z" fill="#cfd7e6" data-original="#cfd7e6" style="" class=""/></g><path id="XMLID_3777_" d="m150 105.289c0 57.896 47.102 105 105 105l10-105-10-105c-57.898 0-105 47.103-105 105z" fill="#354367" data-original="#354367" style="" class=""/><path id="XMLID_3943_" d="m255 .289v210c57.897 0 105-47.104 105-105 0-57.897-47.103-105-105-105z" fill="#282a4b" data-original="#282a4b" style="" class=""/><path id="XMLID_3942_" d="m180 105.289c0 41.355 33.644 75 75 75l10-60-10-90c-41.356 0-75 33.645-75 75z" fill="#e6ecf2" data-original="#e6ecf2" style="" class=""/><path id="XMLID_3486_" d="m255 30.289v150c41.355 0 75-33.645 75-75s-33.645-75-75-75z" fill="#cfd7e6" data-original="#cfd7e6" style="" class=""/><path id="XMLID_3941_" d="m240 60.289v30h-30v30h45l10-30-10-30z" fill="#455e80" data-original="#455e80" style="" class=""/><path id="XMLID_3940_" d="m255 60.289h15v60h-15z" fill="#354367" data-original="#354367" style="" class=""/></g></g></svg>
